<!-- Generated by IcoMoon.io -->
<svg version="1.1" xmlns="http://www.w3.org/2000/svg" width="28" height="32" viewBox="0 0 28 32">
<path d="M21.867 16.887c-0.036-3.585 2.923-5.304 3.056-5.389-1.663-2.433-4.253-2.766-5.176-2.805-2.204-0.223-4.301 1.298-5.42 1.298-1.116 0-2.842-1.265-4.67-1.232-2.403 0.036-4.618 1.397-5.855 3.549-2.496 4.332-0.639 10.749 1.794 14.262 1.189 1.72 2.606 3.651 4.468 3.582 1.792-0.072 2.47-1.16 4.637-1.16s2.776 1.16 4.673 1.124c1.929-0.036 3.151-1.753 4.331-3.477 1.365-1.995 1.927-3.926 1.961-4.025-0.043-0.020-3.761-1.444-3.798-5.726zM18.302 6.367c0.988-1.199 1.655-2.861 1.473-4.52-1.423 0.058-3.148 0.948-4.169 2.144-0.916 1.061-1.718 2.754-1.503 4.38 1.588 0.124 3.21-0.807 4.199-2.003z"></path>
</svg>
