<!-- Generated by IcoMoon.io -->
<svg version="1.1" xmlns="http://www.w3.org/2000/svg" width="26" height="32" viewBox="0 0 26 32">
<path d="M22.339 8.715h-6.466q-1.293 0-2.242-0.948l-1.379-1.293q-0.948-0.948-2.242-0.948h-5.949q-1.379 0-2.328 0.948t-0.948 2.242l0.086 1.466q-0.69 0.948-0.517 2.069l1.034 11.294q0.086 1.293 0.991 2.112t2.198 0.819h16.725q1.293 0 2.198-0.819t0.991-2.112l1.035-11.294q0.172-1.379-0.819-2.457t-2.371-1.078zM3.545 8.715q-0.603 0-1.121 0.259v-0.259q0-0.69 0.474-1.164t1.164-0.474h5.949q0.604 0.086 1.121 0.517l1.121 1.121h-8.707zM19.063 17.25l-5.087 3.19q-0.345 0.172-0.69 0t-0.345-0.604v-1.207h-0.69q-0.862 0-1.638 0.259-1.207 0.345-2.155 1.121-1.207 0.948-1.983 2.5 0.431-3.535 1.811-5.518 1.035-1.466 2.586-1.983 0.862-0.259 2.069-0.259v-1.293q0-0.345 0.345-0.56t0.69-0.043l5.087 3.19q0.345 0.259 0.345 0.647t-0.345 0.56z"></path>
</svg>
