<!-- Generated by IcoMoon.io -->
<svg version="1.1" xmlns="http://www.w3.org/2000/svg" width="26" height="32" viewBox="0 0 26 32">
<path d="M9.748 3.887q-1.379 0-2.328 0.948t-0.948 2.328h-3.19q0.259 0.776 0.948 1.638 0.948 1.121 2.242 1.552v3.19h-3.19q0.259 0.862 0.948 1.724 0.948 1.121 2.242 1.552v3.19h-3.19q0.259 0.862 0.948 1.724 0.948 1.121 2.242 1.552v1.638q0 1.293 0.948 2.242t2.328 0.948h6.466q1.293 0 2.242-0.948t0.948-2.242v-1.638q1.293-0.431 2.242-1.552 0.69-0.862 0.948-1.724h-3.19v-3.19q1.293-0.431 2.242-1.552 0.69-0.862 0.948-1.724h-3.19v-3.19q1.293-0.431 2.242-1.552 0.69-0.862 0.948-1.724h-3.19q0-1.293-0.948-2.242t-2.328-0.948h-6.38zM15.351 9.577q0 0.948-0.69 1.681t-1.724 0.733-1.724-0.733-0.69-1.724 0.69-1.681 1.724-0.733 1.724 0.69 0.69 1.767zM15.351 16.043q0 0.948-0.69 1.681t-1.724 0.733-1.724-0.733-0.69-1.724 0.69-1.681 1.724-0.69 1.724 0.69 0.69 1.724zM12.937 24.923q-1.035 0-1.724-0.733t-0.69-1.724 0.69-1.681 1.724-0.733 1.724 0.69 0.69 1.724-0.69 1.724-1.724 0.733z"></path>
</svg>
