<svg xmlns="http://www.w3.org/2000/svg" id="iex" viewBox="0 0 60 64" height="128" width="128" version="1.1">
 <defs id="defs8" />
 <path style="fill:#0078d7" id="path4" d="m 19.42725,37.7 c 0,1.463 0.2185,2.793 0.665,3.99 0.475,1.178 1.0925,2.2325 1.881,3.154 0.7885,0.9215 1.71,1.71 2.793,2.375 1.045,0.665 2.185,1.216 3.401,1.6435 1.2065,0.437 2.47,0.76 3.7525,0.969 1.3015,0.209 2.565,0.3135 3.8475,0.3135 1.615,0 3.116,-0.1235 4.541,-0.38 1.425,-0.266 2.812,-0.6175 4.18,-1.064 1.368,-0.4465 2.6885,-0.9785 4.009,-1.5865 1.33,-0.608 2.679,-1.273 4.066,-2.014 l 0,12.882 c -1.5485,0.76 -3.0685,1.3965 -4.5885,1.9475 -1.52,0.532 -3.04,0.9975 -4.5885,1.368 -1.5485,0.38 -3.116,0.665 -4.7215,0.836 -1.6055,0.171 -3.249,0.266 -4.959,0.266 -2.28,0 -4.484,-0.266 -6.6025,-0.7885 -2.1185,-0.5225 -4.104,-1.273 -5.966,-2.261 -1.862,-0.988 -3.5625,-2.185 -5.111,-3.591 -1.558,-1.406 -2.8785,-2.9925 -3.99,-4.75 -1.1115,-1.7575 -1.9665,-3.686 -2.584,-5.757 -0.5985,-2.071 -0.9025,-4.275 -0.9025,-6.612 0,-2.4985 0.342,-4.8735 1.026,-7.144 0.6935,-2.28 1.672,-4.351 2.964,-6.251 1.2825,-1.9 2.85,-3.591 4.7025,-5.0635 1.8525,-1.4725 3.933,-2.679 6.251,-3.61 -1.2635,1.2635 -2.2515,2.755 -2.945,4.4935 -0.7125,1.729 -1.159,3.4675 -1.3585,5.206 l 21.641,0 c 0,-2.185 -0.2185,-4.085 -0.665,-5.719 -0.4465,-1.634 -1.159,-2.9925 -2.1565,-4.066 -0.988,-1.083 -2.261,-1.9 -3.8285,-2.432 -1.5675,-0.5415 -3.458,-0.817 -5.6715,-0.817 -2.6125,0 -5.225,0.38 -7.8375,1.1685 -2.6125,0.76 -5.092,1.8525 -7.448,3.23 -2.356,1.3965 -4.522,3.04 -6.498,4.921 -1.976,1.9 -3.6385,3.9425 -4.9875,6.156 0.285,-2.565 0.855,-5.035 1.6435,-7.3815 0.7885,-2.3465 1.8335,-4.5315 3.0875,-6.555 1.254,-1.995 2.7265,-3.819 4.408,-5.453 1.6815,-1.634 3.5435,-3.04 5.605,-4.18 2.0615,-1.14 4.2465,-2.0615 6.6215,-2.679 2.375,-0.5415 4.902,-0.8645 7.562,-0.8645 1.558,0 3.1065,0.1425 4.655,0.418 1.5485,0.285 3.059,0.665 4.5315,1.159 2.926,1.007 5.5385,2.413 7.8375,4.199 2.299,1.805 4.2275,3.857 5.795,6.2035 1.5675,2.3465 2.755,4.94 3.572,7.7615 0.817,2.8215 1.235,5.757 1.235,8.8065 l 0,7.5525 -38.8645,0 z" />
</svg>